<mxfile host="app.diagrams.net" modified="2021-09-17T16:49:49.919Z" agent="5.0 (Windows NT 10.0; Win64; x64) AppleWebKit/537.36 (KHTML, like Gecko) Chrome/93.0.4577.63 Safari/537.36 Edg/93.0.961.47" etag="GY3EWx7ZRCX9Qt1rAt8f" version="15.2.7" type="github">
  <diagram id="X_W6TGiwsRrNaloFk6JN" name="Page-1">
    <mxGraphModel dx="1715" dy="483" grid="1" gridSize="10" guides="1" tooltips="1" connect="1" arrows="1" fold="1" page="1" pageScale="1" pageWidth="850" pageHeight="1100" math="0" shadow="0">
      <root>
        <mxCell id="0" />
        <mxCell id="1" parent="0" />
        <mxCell id="o_ZEjyR7fAlV7eXYk-cl-1" value="&lt;b&gt;&lt;br&gt;Paros&lt;/b&gt;" style="swimlane;fontStyle=0;align=center;verticalAlign=top;childLayout=stackLayout;horizontal=1;startSize=55;horizontalStack=0;resizeParent=1;resizeParentMax=0;resizeLast=0;collapsible=0;marginBottom=0;html=1;" vertex="1" parent="1">
          <mxGeometry x="70" y="100" width="210" height="195" as="geometry" />
        </mxCell>
        <mxCell id="o_ZEjyR7fAlV7eXYk-cl-6" value="" style="line;strokeWidth=1;fillColor=none;align=left;verticalAlign=middle;spacingTop=-1;spacingLeft=3;spacingRight=3;rotatable=0;labelPosition=right;points=[];portConstraint=eastwest;" vertex="1" parent="o_ZEjyR7fAlV7eXYk-cl-1">
          <mxGeometry y="55" width="210" height="20" as="geometry" />
        </mxCell>
        <mxCell id="o_ZEjyR7fAlV7eXYk-cl-8" value="- init() : void" style="text;html=1;strokeColor=none;fillColor=none;align=left;verticalAlign=middle;spacingLeft=4;spacingRight=4;overflow=hidden;rotatable=0;points=[[0,0.5],[1,0.5]];portConstraint=eastwest;" vertex="1" parent="o_ZEjyR7fAlV7eXYk-cl-1">
          <mxGeometry y="75" width="210" height="20" as="geometry" />
        </mxCell>
        <mxCell id="o_ZEjyR7fAlV7eXYk-cl-15" value="- run() : void" style="text;html=1;strokeColor=none;fillColor=none;align=left;verticalAlign=middle;spacingLeft=4;spacingRight=4;overflow=hidden;rotatable=0;points=[[0,0.5],[1,0.5]];portConstraint=eastwest;" vertex="1" parent="o_ZEjyR7fAlV7eXYk-cl-1">
          <mxGeometry y="95" width="210" height="20" as="geometry" />
        </mxCell>
        <mxCell id="o_ZEjyR7fAlV7eXYk-cl-16" value="- runGUI() : void" style="text;html=1;strokeColor=none;fillColor=none;align=left;verticalAlign=middle;spacingLeft=4;spacingRight=4;overflow=hidden;rotatable=0;points=[[0,0.5],[1,0.5]];portConstraint=eastwest;" vertex="1" parent="o_ZEjyR7fAlV7eXYk-cl-1">
          <mxGeometry y="115" width="210" height="20" as="geometry" />
        </mxCell>
        <mxCell id="o_ZEjyR7fAlV7eXYk-cl-17" value="- runCommandLine() : void" style="text;html=1;strokeColor=none;fillColor=none;align=left;verticalAlign=middle;spacingLeft=4;spacingRight=4;overflow=hidden;rotatable=0;points=[[0,0.5],[1,0.5]];portConstraint=eastwest;" vertex="1" parent="o_ZEjyR7fAlV7eXYk-cl-1">
          <mxGeometry y="135" width="210" height="20" as="geometry" />
        </mxCell>
        <mxCell id="o_ZEjyR7fAlV7eXYk-cl-87" value="- showLicense() : void&amp;nbsp;" style="text;html=1;strokeColor=none;fillColor=none;align=left;verticalAlign=middle;spacingLeft=4;spacingRight=4;overflow=hidden;rotatable=0;points=[[0,0.5],[1,0.5]];portConstraint=eastwest;" vertex="1" parent="o_ZEjyR7fAlV7eXYk-cl-1">
          <mxGeometry y="155" width="210" height="20" as="geometry" />
        </mxCell>
        <mxCell id="o_ZEjyR7fAlV7eXYk-cl-88" value="- checkUpdate() : void" style="text;html=1;strokeColor=none;fillColor=none;align=left;verticalAlign=middle;spacingLeft=4;spacingRight=4;overflow=hidden;rotatable=0;points=[[0,0.5],[1,0.5]];portConstraint=eastwest;" vertex="1" parent="o_ZEjyR7fAlV7eXYk-cl-1">
          <mxGeometry y="175" width="210" height="20" as="geometry" />
        </mxCell>
        <mxCell id="o_ZEjyR7fAlV7eXYk-cl-29" value="&lt;br&gt;&lt;b&gt;Constant&lt;/b&gt;" style="swimlane;fontStyle=0;align=center;verticalAlign=top;childLayout=stackLayout;horizontal=1;startSize=55;horizontalStack=0;resizeParent=1;resizeParentMax=0;resizeLast=0;collapsible=0;marginBottom=0;html=1;" vertex="1" parent="1">
          <mxGeometry x="-290" y="398.5" width="250" height="263" as="geometry" />
        </mxCell>
        <mxCell id="o_ZEjyR7fAlV7eXYk-cl-90" value="&lt;u&gt;+ MAX_HOST_CONNECTION : Int&lt;/u&gt;" style="text;html=1;strokeColor=none;fillColor=none;align=left;verticalAlign=middle;spacingLeft=4;spacingRight=4;overflow=hidden;rotatable=0;points=[[0,0.5],[1,0.5]];portConstraint=eastwest;" vertex="1" parent="o_ZEjyR7fAlV7eXYk-cl-29">
          <mxGeometry y="55" width="250" height="20" as="geometry" />
        </mxCell>
        <mxCell id="o_ZEjyR7fAlV7eXYk-cl-89" value="&lt;u&gt;- staticSP: Boolean&lt;/u&gt;" style="text;html=1;strokeColor=none;fillColor=none;align=left;verticalAlign=middle;spacingLeft=4;spacingRight=4;overflow=hidden;rotatable=0;points=[[0,0.5],[1,0.5]];portConstraint=eastwest;" vertex="1" parent="o_ZEjyR7fAlV7eXYk-cl-29">
          <mxGeometry y="75" width="250" height="20" as="geometry" />
        </mxCell>
        <mxCell id="o_ZEjyR7fAlV7eXYk-cl-86" value="+ userhome : String" style="text;html=1;strokeColor=none;fillColor=none;align=left;verticalAlign=middle;spacingLeft=4;spacingRight=4;overflow=hidden;rotatable=0;points=[[0,0.5],[1,0.5]];portConstraint=eastwest;" vertex="1" parent="o_ZEjyR7fAlV7eXYk-cl-29">
          <mxGeometry y="95" width="250" height="20" as="geometry" />
        </mxCell>
        <mxCell id="o_ZEjyR7fAlV7eXYk-cl-34" value="" style="line;strokeWidth=1;fillColor=none;align=left;verticalAlign=middle;spacingTop=-1;spacingLeft=3;spacingRight=3;rotatable=0;labelPosition=right;points=[];portConstraint=eastwest;" vertex="1" parent="o_ZEjyR7fAlV7eXYk-cl-29">
          <mxGeometry y="115" width="250" height="8" as="geometry" />
        </mxCell>
        <mxCell id="o_ZEjyR7fAlV7eXYk-cl-36" value="&lt;u&gt;+ getInstance() : Constant&lt;/u&gt;" style="text;html=1;strokeColor=none;fillColor=none;align=left;verticalAlign=middle;spacingLeft=4;spacingRight=4;overflow=hidden;rotatable=0;points=[[0,0.5],[1,0.5]];portConstraint=eastwest;" vertex="1" parent="o_ZEjyR7fAlV7eXYk-cl-29">
          <mxGeometry y="123" width="250" height="20" as="geometry" />
        </mxCell>
        <mxCell id="o_ZEjyR7fAlV7eXYk-cl-49" value="&lt;u&gt;+ isWindows() : Boolean&lt;/u&gt;" style="text;html=1;strokeColor=none;fillColor=none;align=left;verticalAlign=middle;spacingLeft=4;spacingRight=4;overflow=hidden;rotatable=0;points=[[0,0.5],[1,0.5]];portConstraint=eastwest;" vertex="1" parent="o_ZEjyR7fAlV7eXYk-cl-29">
          <mxGeometry y="143" width="250" height="20" as="geometry" />
        </mxCell>
        <mxCell id="o_ZEjyR7fAlV7eXYk-cl-91" value="&lt;u&gt;+ getEyeCatcher() : String&lt;/u&gt;" style="text;html=1;strokeColor=none;fillColor=none;align=left;verticalAlign=middle;spacingLeft=4;spacingRight=4;overflow=hidden;rotatable=0;points=[[0,0.5],[1,0.5]];portConstraint=eastwest;" vertex="1" parent="o_ZEjyR7fAlV7eXYk-cl-29">
          <mxGeometry y="163" width="250" height="20" as="geometry" />
        </mxCell>
        <mxCell id="o_ZEjyR7fAlV7eXYk-cl-92" value="&lt;u&gt;+ setEyeCatcher(String eyeCatcher) :&amp;nbsp;&lt;/u&gt;&lt;u&gt;void&amp;nbsp;&lt;/u&gt;" style="text;html=1;strokeColor=none;fillColor=none;align=left;verticalAlign=middle;spacingLeft=4;spacingRight=4;overflow=hidden;rotatable=0;points=[[0,0.5],[1,0.5]];portConstraint=eastwest;" vertex="1" parent="o_ZEjyR7fAlV7eXYk-cl-29">
          <mxGeometry y="183" width="250" height="20" as="geometry" />
        </mxCell>
        <mxCell id="o_ZEjyR7fAlV7eXYk-cl-93" value="&lt;u&gt;+ setSP(boolean isSP) :&amp;nbsp;&lt;/u&gt;&lt;u&gt;void&lt;/u&gt;" style="text;html=1;strokeColor=none;fillColor=none;align=left;verticalAlign=middle;spacingLeft=4;spacingRight=4;overflow=hidden;rotatable=0;points=[[0,0.5],[1,0.5]];portConstraint=eastwest;" vertex="1" parent="o_ZEjyR7fAlV7eXYk-cl-29">
          <mxGeometry y="203" width="250" height="20" as="geometry" />
        </mxCell>
        <mxCell id="o_ZEjyR7fAlV7eXYk-cl-94" value="&lt;u&gt;+ isSP() : Boolean&lt;/u&gt;" style="text;html=1;strokeColor=none;fillColor=none;align=left;verticalAlign=middle;spacingLeft=4;spacingRight=4;overflow=hidden;rotatable=0;points=[[0,0.5],[1,0.5]];portConstraint=eastwest;" vertex="1" parent="o_ZEjyR7fAlV7eXYk-cl-29">
          <mxGeometry y="223" width="250" height="20" as="geometry" />
        </mxCell>
        <mxCell id="o_ZEjyR7fAlV7eXYk-cl-95" value="&lt;u&gt;+ isLinux() : Boolean&lt;/u&gt;" style="text;html=1;strokeColor=none;fillColor=none;align=left;verticalAlign=middle;spacingLeft=4;spacingRight=4;overflow=hidden;rotatable=0;points=[[0,0.5],[1,0.5]];portConstraint=eastwest;" vertex="1" parent="o_ZEjyR7fAlV7eXYk-cl-29">
          <mxGeometry y="243" width="250" height="20" as="geometry" />
        </mxCell>
        <mxCell id="o_ZEjyR7fAlV7eXYk-cl-37" value="&amp;lt;&amp;lt;use&amp;gt;&amp;gt;" style="endArrow=open;html=1;rounded=0;align=center;verticalAlign=bottom;dashed=1;endFill=0;labelBackgroundColor=none;exitX=0.364;exitY=1.12;exitDx=0;exitDy=0;exitPerimeter=0;entryX=0.5;entryY=0;entryDx=0;entryDy=0;" edge="1" parent="1" source="o_ZEjyR7fAlV7eXYk-cl-88" target="o_ZEjyR7fAlV7eXYk-cl-29">
          <mxGeometry relative="1" as="geometry">
            <mxPoint x="160" y="320" as="sourcePoint" />
            <mxPoint x="250" y="320" as="targetPoint" />
          </mxGeometry>
        </mxCell>
        <mxCell id="o_ZEjyR7fAlV7eXYk-cl-39" value="&lt;br&gt;&lt;b&gt;Model&lt;/b&gt;" style="swimlane;fontStyle=0;align=center;verticalAlign=top;childLayout=stackLayout;horizontal=1;startSize=50;horizontalStack=0;resizeParent=1;resizeParentMax=0;resizeLast=0;collapsible=0;marginBottom=0;html=1;" vertex="1" parent="1">
          <mxGeometry x="18.120000000000005" y="420" width="323.75" height="340" as="geometry" />
        </mxCell>
        <mxCell id="o_ZEjyR7fAlV7eXYk-cl-98" value="&lt;u&gt;- DBNAME_TEMPLATE : String&lt;/u&gt;" style="text;html=1;strokeColor=none;fillColor=none;align=left;verticalAlign=middle;spacingLeft=4;spacingRight=4;overflow=hidden;rotatable=0;points=[[0,0.5],[1,0.5]];portConstraint=eastwest;" vertex="1" parent="o_ZEjyR7fAlV7eXYk-cl-39">
          <mxGeometry y="50" width="323.75" height="20" as="geometry" />
        </mxCell>
        <mxCell id="o_ZEjyR7fAlV7eXYk-cl-97" value="- DBNAME_UNTITLED : String" style="text;html=1;strokeColor=none;fillColor=none;align=left;verticalAlign=middle;spacingLeft=4;spacingRight=4;overflow=hidden;rotatable=0;points=[[0,0.5],[1,0.5]];portConstraint=eastwest;" vertex="1" parent="o_ZEjyR7fAlV7eXYk-cl-39">
          <mxGeometry y="70" width="323.75" height="20" as="geometry" />
        </mxCell>
        <mxCell id="o_ZEjyR7fAlV7eXYk-cl-99" value="&lt;u&gt;- DBNAME_COPY : String&lt;/u&gt;" style="text;html=1;strokeColor=none;fillColor=none;align=left;verticalAlign=middle;spacingLeft=4;spacingRight=4;overflow=hidden;rotatable=0;points=[[0,0.5],[1,0.5]];portConstraint=eastwest;" vertex="1" parent="o_ZEjyR7fAlV7eXYk-cl-39">
          <mxGeometry y="90" width="323.75" height="20" as="geometry" />
        </mxCell>
        <mxCell id="o_ZEjyR7fAlV7eXYk-cl-44" value="" style="line;strokeWidth=1;fillColor=none;align=left;verticalAlign=middle;spacingTop=-1;spacingLeft=3;spacingRight=3;rotatable=0;labelPosition=right;points=[];portConstraint=eastwest;" vertex="1" parent="o_ZEjyR7fAlV7eXYk-cl-39">
          <mxGeometry y="110" width="323.75" height="30" as="geometry" />
        </mxCell>
        <mxCell id="o_ZEjyR7fAlV7eXYk-cl-46" value="+ init() :&amp;nbsp;void" style="text;html=1;strokeColor=none;fillColor=none;align=left;verticalAlign=middle;spacingLeft=4;spacingRight=4;overflow=hidden;rotatable=0;points=[[0,0.5],[1,0.5]];portConstraint=eastwest;" vertex="1" parent="o_ZEjyR7fAlV7eXYk-cl-39">
          <mxGeometry y="140" width="323.75" height="20" as="geometry" />
        </mxCell>
        <mxCell id="o_ZEjyR7fAlV7eXYk-cl-50" value="&lt;u&gt;+ getSingleton() : Model&lt;/u&gt;" style="text;html=1;strokeColor=none;fillColor=none;align=left;verticalAlign=middle;spacingLeft=4;spacingRight=4;overflow=hidden;rotatable=0;points=[[0,0.5],[1,0.5]];portConstraint=eastwest;" vertex="1" parent="o_ZEjyR7fAlV7eXYk-cl-39">
          <mxGeometry y="160" width="323.75" height="20" as="geometry" />
        </mxCell>
        <mxCell id="o_ZEjyR7fAlV7eXYk-cl-51" value="+ copySessionDb(String currentFile,String, destFile) : void" style="text;html=1;strokeColor=none;fillColor=none;align=left;verticalAlign=middle;spacingLeft=4;spacingRight=4;overflow=hidden;rotatable=0;points=[[0,0.5],[1,0.5]];portConstraint=eastwest;" vertex="1" parent="o_ZEjyR7fAlV7eXYk-cl-39">
          <mxGeometry y="180" width="323.75" height="20" as="geometry" />
        </mxCell>
        <mxCell id="o_ZEjyR7fAlV7eXYk-cl-54" value="+ createAndOpenUntitledDb() : void&amp;nbsp;" style="text;html=1;strokeColor=none;fillColor=none;align=left;verticalAlign=middle;spacingLeft=4;spacingRight=4;overflow=hidden;rotatable=0;points=[[0,0.5],[1,0.5]];portConstraint=eastwest;" vertex="1" parent="o_ZEjyR7fAlV7eXYk-cl-39">
          <mxGeometry y="200" width="323.75" height="20" as="geometry" />
        </mxCell>
        <mxCell id="o_ZEjyR7fAlV7eXYk-cl-100" value="+ getOptionsParam() : OptionsParam" style="text;html=1;strokeColor=none;fillColor=none;align=left;verticalAlign=middle;spacingLeft=4;spacingRight=4;overflow=hidden;rotatable=0;points=[[0,0.5],[1,0.5]];portConstraint=eastwest;" vertex="1" parent="o_ZEjyR7fAlV7eXYk-cl-39">
          <mxGeometry y="220" width="323.75" height="20" as="geometry" />
        </mxCell>
        <mxCell id="o_ZEjyR7fAlV7eXYk-cl-101" value="+ setOptionsParam(OptionsParam param) : void&amp;nbsp;" style="text;html=1;strokeColor=none;fillColor=none;align=left;verticalAlign=middle;spacingLeft=4;spacingRight=4;overflow=hidden;rotatable=0;points=[[0,0.5],[1,0.5]];portConstraint=eastwest;" vertex="1" parent="o_ZEjyR7fAlV7eXYk-cl-39">
          <mxGeometry y="240" width="323.75" height="20" as="geometry" />
        </mxCell>
        <mxCell id="o_ZEjyR7fAlV7eXYk-cl-103" value="+ getSession() : Session" style="text;html=1;strokeColor=none;fillColor=none;align=left;verticalAlign=middle;spacingLeft=4;spacingRight=4;overflow=hidden;rotatable=0;points=[[0,0.5],[1,0.5]];portConstraint=eastwest;" vertex="1" parent="o_ZEjyR7fAlV7eXYk-cl-39">
          <mxGeometry y="260" width="323.75" height="20" as="geometry" />
        </mxCell>
        <mxCell id="o_ZEjyR7fAlV7eXYk-cl-104" value="+ setSession(Session paramSession)&amp;nbsp; : void" style="text;html=1;strokeColor=none;fillColor=none;align=left;verticalAlign=middle;spacingLeft=4;spacingRight=4;overflow=hidden;rotatable=0;points=[[0,0.5],[1,0.5]];portConstraint=eastwest;" vertex="1" parent="o_ZEjyR7fAlV7eXYk-cl-39">
          <mxGeometry y="280" width="323.75" height="20" as="geometry" />
        </mxCell>
        <mxCell id="o_ZEjyR7fAlV7eXYk-cl-105" value="+ getDb()&amp;nbsp; : Database" style="text;html=1;strokeColor=none;fillColor=none;align=left;verticalAlign=middle;spacingLeft=4;spacingRight=4;overflow=hidden;rotatable=0;points=[[0,0.5],[1,0.5]];portConstraint=eastwest;" vertex="1" parent="o_ZEjyR7fAlV7eXYk-cl-39">
          <mxGeometry y="300" width="323.75" height="20" as="geometry" />
        </mxCell>
        <mxCell id="o_ZEjyR7fAlV7eXYk-cl-106" value="+ moveSessionDb(String destFile) : void" style="text;html=1;strokeColor=none;fillColor=none;align=left;verticalAlign=middle;spacingLeft=4;spacingRight=4;overflow=hidden;rotatable=0;points=[[0,0.5],[1,0.5]];portConstraint=eastwest;" vertex="1" parent="o_ZEjyR7fAlV7eXYk-cl-39">
          <mxGeometry y="320" width="323.75" height="20" as="geometry" />
        </mxCell>
        <mxCell id="o_ZEjyR7fAlV7eXYk-cl-48" value="&amp;lt;&amp;lt;use&amp;gt;&amp;gt;" style="endArrow=open;html=1;rounded=0;align=center;verticalAlign=bottom;dashed=1;endFill=0;labelBackgroundColor=none;entryX=0.5;entryY=0;entryDx=0;entryDy=0;exitX=0.521;exitY=1.118;exitDx=0;exitDy=0;elbow=vertical;exitPerimeter=0;" edge="1" parent="1" source="o_ZEjyR7fAlV7eXYk-cl-88" target="o_ZEjyR7fAlV7eXYk-cl-39">
          <mxGeometry relative="1" as="geometry">
            <mxPoint x="280" y="210" as="sourcePoint" />
            <mxPoint x="510" y="210" as="targetPoint" />
          </mxGeometry>
        </mxCell>
        <mxCell id="o_ZEjyR7fAlV7eXYk-cl-96" style="edgeStyle=none;rounded=0;orthogonalLoop=1;jettySize=auto;html=1;exitX=0.5;exitY=1;exitDx=0;exitDy=0;entryX=0.5;entryY=0;entryDx=0;entryDy=0;startArrow=none;startFill=0;endArrow=block;endFill=0;" edge="1" parent="1" source="o_ZEjyR7fAlV7eXYk-cl-56" target="o_ZEjyR7fAlV7eXYk-cl-67">
          <mxGeometry relative="1" as="geometry" />
        </mxCell>
        <mxCell id="o_ZEjyR7fAlV7eXYk-cl-56" value="&lt;br&gt;&lt;b&gt;Session&lt;/b&gt;&lt;br&gt;" style="swimlane;fontStyle=0;align=center;verticalAlign=top;childLayout=stackLayout;horizontal=1;startSize=55;horizontalStack=0;resizeParent=1;resizeParentMax=0;resizeLast=0;collapsible=0;marginBottom=0;html=1;" vertex="1" parent="1">
          <mxGeometry x="14.37" y="840" width="321.25" height="483" as="geometry" />
        </mxCell>
        <mxCell id="o_ZEjyR7fAlV7eXYk-cl-58" value="&lt;u&gt;- ROOT : String&lt;/u&gt;" style="text;html=1;strokeColor=none;fillColor=none;align=left;verticalAlign=middle;spacingLeft=4;spacingRight=4;overflow=hidden;rotatable=0;points=[[0,0.5],[1,0.5]];portConstraint=eastwest;" vertex="1" parent="o_ZEjyR7fAlV7eXYk-cl-56">
          <mxGeometry y="55" width="321.25" height="20" as="geometry" />
        </mxCell>
        <mxCell id="o_ZEjyR7fAlV7eXYk-cl-108" value="- sessionId: Long" style="text;html=1;strokeColor=none;fillColor=none;align=left;verticalAlign=middle;spacingLeft=4;spacingRight=4;overflow=hidden;rotatable=0;points=[[0,0.5],[1,0.5]];portConstraint=eastwest;" vertex="1" parent="o_ZEjyR7fAlV7eXYk-cl-56">
          <mxGeometry y="75" width="321.25" height="20" as="geometry" />
        </mxCell>
        <mxCell id="o_ZEjyR7fAlV7eXYk-cl-109" value="- sessionName: String" style="text;html=1;strokeColor=none;fillColor=none;align=left;verticalAlign=middle;spacingLeft=4;spacingRight=4;overflow=hidden;rotatable=0;points=[[0,0.5],[1,0.5]];portConstraint=eastwest;" vertex="1" parent="o_ZEjyR7fAlV7eXYk-cl-56">
          <mxGeometry y="95" width="321.25" height="20" as="geometry" />
        </mxCell>
        <mxCell id="o_ZEjyR7fAlV7eXYk-cl-110" value="- sessionDesc: String" style="text;html=1;strokeColor=none;fillColor=none;align=left;verticalAlign=middle;spacingLeft=4;spacingRight=4;overflow=hidden;rotatable=0;points=[[0,0.5],[1,0.5]];portConstraint=eastwest;" vertex="1" parent="o_ZEjyR7fAlV7eXYk-cl-56">
          <mxGeometry y="115" width="321.25" height="20" as="geometry" />
        </mxCell>
        <mxCell id="o_ZEjyR7fAlV7eXYk-cl-61" value="" style="line;strokeWidth=1;fillColor=none;align=left;verticalAlign=middle;spacingTop=-1;spacingLeft=3;spacingRight=3;rotatable=0;labelPosition=right;points=[];portConstraint=eastwest;" vertex="1" parent="o_ZEjyR7fAlV7eXYk-cl-56">
          <mxGeometry y="135" width="321.25" height="8" as="geometry" />
        </mxCell>
        <mxCell id="o_ZEjyR7fAlV7eXYk-cl-63" value="+ setSessionId(long sessionId) : void" style="text;html=1;strokeColor=none;fillColor=none;align=left;verticalAlign=middle;spacingLeft=4;spacingRight=4;overflow=hidden;rotatable=0;points=[[0,0.5],[1,0.5]];portConstraint=eastwest;" vertex="1" parent="o_ZEjyR7fAlV7eXYk-cl-56">
          <mxGeometry y="143" width="321.25" height="20" as="geometry" />
        </mxCell>
        <mxCell id="o_ZEjyR7fAlV7eXYk-cl-111" value="+ setSessionName(String name) : void" style="text;html=1;strokeColor=none;fillColor=none;align=left;verticalAlign=middle;spacingLeft=4;spacingRight=4;overflow=hidden;rotatable=0;points=[[0,0.5],[1,0.5]];portConstraint=eastwest;" vertex="1" parent="o_ZEjyR7fAlV7eXYk-cl-56">
          <mxGeometry y="163" width="321.25" height="20" as="geometry" />
        </mxCell>
        <mxCell id="o_ZEjyR7fAlV7eXYk-cl-112" value="+ setSessionDesc(String sessionDesc) : void&amp;nbsp;" style="text;html=1;strokeColor=none;fillColor=none;align=left;verticalAlign=middle;spacingLeft=4;spacingRight=4;overflow=hidden;rotatable=0;points=[[0,0.5],[1,0.5]];portConstraint=eastwest;" vertex="1" parent="o_ZEjyR7fAlV7eXYk-cl-56">
          <mxGeometry y="183" width="321.25" height="20" as="geometry" />
        </mxCell>
        <mxCell id="o_ZEjyR7fAlV7eXYk-cl-113" value="+ discard() : void&amp;nbsp;" style="text;html=1;strokeColor=none;fillColor=none;align=left;verticalAlign=middle;spacingLeft=4;spacingRight=4;overflow=hidden;rotatable=0;points=[[0,0.5],[1,0.5]];portConstraint=eastwest;" vertex="1" parent="o_ZEjyR7fAlV7eXYk-cl-56">
          <mxGeometry y="203" width="321.25" height="20" as="geometry" />
        </mxCell>
        <mxCell id="o_ZEjyR7fAlV7eXYk-cl-115" value="+ getSessionDesc() : String" style="text;html=1;strokeColor=none;fillColor=none;align=left;verticalAlign=middle;spacingLeft=4;spacingRight=4;overflow=hidden;rotatable=0;points=[[0,0.5],[1,0.5]];portConstraint=eastwest;" vertex="1" parent="o_ZEjyR7fAlV7eXYk-cl-56">
          <mxGeometry y="223" width="321.25" height="20" as="geometry" />
        </mxCell>
        <mxCell id="o_ZEjyR7fAlV7eXYk-cl-116" value="+ getSessionId() : Long" style="text;html=1;strokeColor=none;fillColor=none;align=left;verticalAlign=middle;spacingLeft=4;spacingRight=4;overflow=hidden;rotatable=0;points=[[0,0.5],[1,0.5]];portConstraint=eastwest;" vertex="1" parent="o_ZEjyR7fAlV7eXYk-cl-56">
          <mxGeometry y="243" width="321.25" height="20" as="geometry" />
        </mxCell>
        <mxCell id="o_ZEjyR7fAlV7eXYk-cl-117" value="+ getSessionName() : String" style="text;html=1;strokeColor=none;fillColor=none;align=left;verticalAlign=middle;spacingLeft=4;spacingRight=4;overflow=hidden;rotatable=0;points=[[0,0.5],[1,0.5]];portConstraint=eastwest;" vertex="1" parent="o_ZEjyR7fAlV7eXYk-cl-56">
          <mxGeometry y="263" width="321.25" height="20" as="geometry" />
        </mxCell>
        <mxCell id="o_ZEjyR7fAlV7eXYk-cl-118" value="+ getSiteTree() : SiteMap" style="text;html=1;strokeColor=none;fillColor=none;align=left;verticalAlign=middle;spacingLeft=4;spacingRight=4;overflow=hidden;rotatable=0;points=[[0,0.5],[1,0.5]];portConstraint=eastwest;" vertex="1" parent="o_ZEjyR7fAlV7eXYk-cl-56">
          <mxGeometry y="283" width="321.25" height="20" as="geometry" />
        </mxCell>
        <mxCell id="o_ZEjyR7fAlV7eXYk-cl-119" value="+ isNewState() : Boolean" style="text;html=1;strokeColor=none;fillColor=none;align=left;verticalAlign=middle;spacingLeft=4;spacingRight=4;overflow=hidden;rotatable=0;points=[[0,0.5],[1,0.5]];portConstraint=eastwest;" vertex="1" parent="o_ZEjyR7fAlV7eXYk-cl-56">
          <mxGeometry y="303" width="321.25" height="20" as="geometry" />
        </mxCell>
        <mxCell id="o_ZEjyR7fAlV7eXYk-cl-120" value="+ open(final File file, final SessionListener callback) : void" style="text;html=1;strokeColor=none;fillColor=none;align=left;verticalAlign=middle;spacingLeft=4;spacingRight=4;overflow=hidden;rotatable=0;points=[[0,0.5],[1,0.5]];portConstraint=eastwest;" vertex="1" parent="o_ZEjyR7fAlV7eXYk-cl-56">
          <mxGeometry y="323" width="321.25" height="20" as="geometry" />
        </mxCell>
        <mxCell id="o_ZEjyR7fAlV7eXYk-cl-121" value="+ open(String fileName) : void" style="text;html=1;strokeColor=none;fillColor=none;align=left;verticalAlign=middle;spacingLeft=4;spacingRight=4;overflow=hidden;rotatable=0;points=[[0,0.5],[1,0.5]];portConstraint=eastwest;" vertex="1" parent="o_ZEjyR7fAlV7eXYk-cl-56">
          <mxGeometry y="343" width="321.25" height="20" as="geometry" />
        </mxCell>
        <mxCell id="o_ZEjyR7fAlV7eXYk-cl-122" value="# parse() : void" style="text;html=1;strokeColor=none;fillColor=none;align=left;verticalAlign=middle;spacingLeft=4;spacingRight=4;overflow=hidden;rotatable=0;points=[[0,0.5],[1,0.5]];portConstraint=eastwest;" vertex="1" parent="o_ZEjyR7fAlV7eXYk-cl-56">
          <mxGeometry y="363" width="321.25" height="20" as="geometry" />
        </mxCell>
        <mxCell id="o_ZEjyR7fAlV7eXYk-cl-123" value="+ save(final File file, final SessionListener callback) : void" style="text;html=1;strokeColor=none;fillColor=none;align=left;verticalAlign=middle;spacingLeft=4;spacingRight=4;overflow=hidden;rotatable=0;points=[[0,0.5],[1,0.5]];portConstraint=eastwest;" vertex="1" parent="o_ZEjyR7fAlV7eXYk-cl-56">
          <mxGeometry y="383" width="321.25" height="20" as="geometry" />
        </mxCell>
        <mxCell id="o_ZEjyR7fAlV7eXYk-cl-124" value="+ save(String fileName) : void" style="text;html=1;strokeColor=none;fillColor=none;align=left;verticalAlign=middle;spacingLeft=4;spacingRight=4;overflow=hidden;rotatable=0;points=[[0,0.5],[1,0.5]];portConstraint=eastwest;" vertex="1" parent="o_ZEjyR7fAlV7eXYk-cl-56">
          <mxGeometry y="403" width="321.25" height="20" as="geometry" />
        </mxCell>
        <mxCell id="o_ZEjyR7fAlV7eXYk-cl-125" value="+ getFileName() : String" style="text;html=1;strokeColor=none;fillColor=none;align=left;verticalAlign=middle;spacingLeft=4;spacingRight=4;overflow=hidden;rotatable=0;points=[[0,0.5],[1,0.5]];portConstraint=eastwest;" vertex="1" parent="o_ZEjyR7fAlV7eXYk-cl-56">
          <mxGeometry y="423" width="321.25" height="20" as="geometry" />
        </mxCell>
        <mxCell id="o_ZEjyR7fAlV7eXYk-cl-126" value="- saveSiteTree(SiteNode node) : void" style="text;html=1;strokeColor=none;fillColor=none;align=left;verticalAlign=middle;spacingLeft=4;spacingRight=4;overflow=hidden;rotatable=0;points=[[0,0.5],[1,0.5]];portConstraint=eastwest;" vertex="1" parent="o_ZEjyR7fAlV7eXYk-cl-56">
          <mxGeometry y="443" width="321.25" height="20" as="geometry" />
        </mxCell>
        <mxCell id="o_ZEjyR7fAlV7eXYk-cl-128" value="+ getSessionFolder() : String" style="text;html=1;strokeColor=none;fillColor=none;align=left;verticalAlign=middle;spacingLeft=4;spacingRight=4;overflow=hidden;rotatable=0;points=[[0,0.5],[1,0.5]];portConstraint=eastwest;" vertex="1" parent="o_ZEjyR7fAlV7eXYk-cl-56">
          <mxGeometry y="463" width="321.25" height="20" as="geometry" />
        </mxCell>
        <mxCell id="o_ZEjyR7fAlV7eXYk-cl-66" style="rounded=0;orthogonalLoop=1;jettySize=auto;html=1;startArrow=diamond;startFill=1;endArrow=open;endFill=0;entryX=0.5;entryY=0;entryDx=0;entryDy=0;exitX=0.483;exitY=1.303;exitDx=0;exitDy=0;exitPerimeter=0;" edge="1" parent="1" source="o_ZEjyR7fAlV7eXYk-cl-106" target="o_ZEjyR7fAlV7eXYk-cl-56">
          <mxGeometry relative="1" as="geometry">
            <mxPoint x="190" y="940" as="sourcePoint" />
            <mxPoint x="180" y="710" as="targetPoint" />
          </mxGeometry>
        </mxCell>
        <mxCell id="o_ZEjyR7fAlV7eXYk-cl-67" value="&lt;br&gt;&lt;b&gt;&lt;i&gt;FileXML&lt;/i&gt;&lt;/b&gt;&lt;br&gt;" style="swimlane;fontStyle=0;align=center;verticalAlign=top;childLayout=stackLayout;horizontal=1;startSize=55;horizontalStack=0;resizeParent=1;resizeParentMax=0;resizeLast=0;collapsible=0;marginBottom=0;html=1;" vertex="1" parent="1">
          <mxGeometry x="104.99" y="1380" width="140" height="183" as="geometry" />
        </mxCell>
        <mxCell id="o_ZEjyR7fAlV7eXYk-cl-68" value="attributes" style="text;html=1;strokeColor=none;fillColor=none;align=center;verticalAlign=middle;spacingLeft=4;spacingRight=4;overflow=hidden;rotatable=0;points=[[0,0.5],[1,0.5]];portConstraint=eastwest;" vertex="1" parent="o_ZEjyR7fAlV7eXYk-cl-67">
          <mxGeometry y="55" width="140" height="20" as="geometry" />
        </mxCell>
        <mxCell id="o_ZEjyR7fAlV7eXYk-cl-69" value="attribute1" style="text;html=1;strokeColor=none;fillColor=none;align=left;verticalAlign=middle;spacingLeft=4;spacingRight=4;overflow=hidden;rotatable=0;points=[[0,0.5],[1,0.5]];portConstraint=eastwest;" vertex="1" parent="o_ZEjyR7fAlV7eXYk-cl-67">
          <mxGeometry y="75" width="140" height="20" as="geometry" />
        </mxCell>
        <mxCell id="o_ZEjyR7fAlV7eXYk-cl-70" value="inherited attribute2" style="text;html=1;strokeColor=none;fillColor=none;align=left;verticalAlign=middle;spacingLeft=4;spacingRight=4;overflow=hidden;rotatable=0;points=[[0,0.5],[1,0.5]];portConstraint=eastwest;fontColor=#808080;" vertex="1" parent="o_ZEjyR7fAlV7eXYk-cl-67">
          <mxGeometry y="95" width="140" height="20" as="geometry" />
        </mxCell>
        <mxCell id="o_ZEjyR7fAlV7eXYk-cl-71" value="..." style="text;html=1;strokeColor=none;fillColor=none;align=left;verticalAlign=middle;spacingLeft=4;spacingRight=4;overflow=hidden;rotatable=0;points=[[0,0.5],[1,0.5]];portConstraint=eastwest;" vertex="1" parent="o_ZEjyR7fAlV7eXYk-cl-67">
          <mxGeometry y="115" width="140" height="20" as="geometry" />
        </mxCell>
        <mxCell id="o_ZEjyR7fAlV7eXYk-cl-72" value="" style="line;strokeWidth=1;fillColor=none;align=left;verticalAlign=middle;spacingTop=-1;spacingLeft=3;spacingRight=3;rotatable=0;labelPosition=right;points=[];portConstraint=eastwest;" vertex="1" parent="o_ZEjyR7fAlV7eXYk-cl-67">
          <mxGeometry y="135" width="140" height="8" as="geometry" />
        </mxCell>
        <mxCell id="o_ZEjyR7fAlV7eXYk-cl-73" value="operations" style="text;html=1;strokeColor=none;fillColor=none;align=center;verticalAlign=middle;spacingLeft=4;spacingRight=4;overflow=hidden;rotatable=0;points=[[0,0.5],[1,0.5]];portConstraint=eastwest;" vertex="1" parent="o_ZEjyR7fAlV7eXYk-cl-67">
          <mxGeometry y="143" width="140" height="20" as="geometry" />
        </mxCell>
        <mxCell id="o_ZEjyR7fAlV7eXYk-cl-74" value="operation1" style="text;html=1;strokeColor=none;fillColor=none;align=left;verticalAlign=middle;spacingLeft=4;spacingRight=4;overflow=hidden;rotatable=0;points=[[0,0.5],[1,0.5]];portConstraint=eastwest;" vertex="1" parent="o_ZEjyR7fAlV7eXYk-cl-67">
          <mxGeometry y="163" width="140" height="20" as="geometry" />
        </mxCell>
      </root>
    </mxGraphModel>
  </diagram>
</mxfile>
